<svg width="39" height="28" viewBox="0 0 39 39" fill="none" xmlns="http://www.w3.org/2000/svg">
<path d="M32.0423 29.6476L21.3273 19.3889L32.0423 9.13028C32.0484 9.12342 32.0549 9.11693 32.0618 9.11082C32.3964 8.77601 32.6242 8.34952 32.7165 7.88526C32.8088 7.421 32.7614 6.9398 32.5802 6.50247C32.3991 6.06515 32.0924 5.69132 31.6989 5.42824C31.3054 5.16516 30.8428 5.02463 30.3694 5.02441H8.82264C8.34942 5.02493 7.88697 5.16567 7.4937 5.42887C7.10042 5.69206 6.79397 6.0659 6.61304 6.50316C6.43212 6.94043 6.38484 7.42151 6.47717 7.88563C6.5695 8.34975 6.79731 8.7761 7.13181 9.11082L7.14977 9.13028L17.8648 19.3889L7.14977 29.6476L7.13181 29.6671C6.79731 30.0018 6.5695 30.4281 6.47717 30.8923C6.38484 31.3564 6.43212 31.8375 6.61304 32.2747C6.79397 32.712 7.10042 33.0858 7.4937 33.349C7.88697 33.6122 8.34942 33.753 8.82264 33.7535H30.3694C30.8429 33.7536 31.3058 33.6132 31.6995 33.3503C32.0932 33.0873 32.4002 32.7135 32.5814 32.2761C32.7627 31.8387 32.8103 31.3574 32.718 30.893C32.6258 30.4286 32.3979 30.002 32.0633 29.6671C32.0559 29.661 32.0489 29.6545 32.0423 29.6476ZM15.0757 13.4037H24.1164L19.596 17.731L15.0757 13.4037ZM30.3694 7.4185L26.6167 11.0096H12.5754L8.82264 7.4185H30.3694ZM8.82264 31.3594L18.399 22.193V25.3742C18.399 25.6916 18.5251 25.9961 18.7496 26.2206C18.9741 26.4451 19.2786 26.5712 19.596 26.5712C19.9135 26.5712 20.218 26.4451 20.4425 26.2206C20.667 25.9961 20.7931 25.6916 20.7931 25.3742V22.193L30.3694 31.3594H8.82264Z" fill="#8F8F8F"/>
</svg>
