<svg width="32" height="32" viewBox="0 0 32 32" fill="none" xmlns="http://www.w3.org/2000/svg">
<path d="M29 18.0859C28.7875 20.5559 27.8741 22.9138 26.3671 24.8822C24.86 26.8507 22.8222 28.3478 20.4932 29.1974C18.1643 30.047 15.6411 30.2137 13.2206 29.678C10.8 29.1423 8.58287 27.9265 6.82989 26.1735C5.07691 24.4205 3.86105 22.2034 3.32537 19.7828C2.78968 17.3623 2.95644 14.8391 3.80604 12.5102C4.65564 10.1812 6.15273 8.14336 8.12118 6.63634C10.0896 5.12933 12.4475 4.21585 14.9175 4.0034C15.0488 3.99256 15.181 4.0077 15.3065 4.04795C15.4319 4.08819 15.5483 4.15276 15.6488 4.23795C15.7493 4.32315 15.832 4.42731 15.8923 4.54449C15.9526 4.66167 15.9892 4.78958 16 4.9209C16.0108 5.05222 15.9957 5.18439 15.9555 5.30986C15.9152 5.43533 15.8506 5.55165 15.7654 5.65217C15.6802 5.75269 15.5761 5.83544 15.4589 5.89571C15.3417 5.95597 15.2138 5.99256 15.0825 6.0034C12.992 6.18301 10.9963 6.95598 9.33014 8.23135C7.66402 9.50672 6.39683 11.2314 5.67766 13.2026C4.95849 15.1737 4.81727 17.3092 5.27061 19.3579C5.72395 21.4065 6.75299 23.2831 8.23666 24.7667C9.72032 26.2504 11.5969 27.2794 13.6455 27.7328C15.6942 28.1861 17.8297 28.0449 19.8008 27.3257C21.772 26.6066 23.4967 25.3394 24.772 23.6733C26.0474 22.0071 26.8204 20.0114 27 17.9209C27.0219 17.6557 27.1482 17.41 27.3512 17.238C27.5542 17.0659 27.8173 16.9815 28.0825 17.0034C28.3477 17.0253 28.5934 17.1516 28.7654 17.3546C28.9375 17.5576 29.0219 17.8207 29 18.0859ZM15 10.0034V17.0034C15 17.2686 15.1054 17.523 15.2929 17.7105C15.4804 17.898 15.7348 18.0034 16 18.0034H23C23.2652 18.0034 23.5196 17.898 23.7071 17.7105C23.8946 17.523 24 17.2686 24 17.0034C24 16.7382 23.8946 16.4838 23.7071 16.2963C23.5196 16.1088 23.2652 16.0034 23 16.0034H17V10.0034C17 9.73818 16.8946 9.48383 16.7071 9.29629C16.5196 9.10875 16.2652 9.0034 16 9.0034C15.7348 9.0034 15.4804 9.10875 15.2929 9.29629C15.1054 9.48383 15 9.73818 15 10.0034ZM20 7.0034C20.2967 7.0034 20.5867 6.91542 20.8334 6.7506C21.08 6.58578 21.2723 6.35151 21.3858 6.07742C21.4994 5.80333 21.5291 5.50173 21.4712 5.21076C21.4133 4.91979 21.2704 4.65252 21.0607 4.44274C20.8509 4.23296 20.5836 4.0901 20.2926 4.03222C20.0017 3.97434 19.7001 4.00405 19.426 4.11758C19.1519 4.23111 18.9176 4.42337 18.7528 4.67004C18.588 4.91672 18.5 5.20673 18.5 5.5034C18.5 5.90122 18.658 6.28275 18.9393 6.56406C19.2206 6.84536 19.6022 7.0034 20 7.0034ZM24.5 10.0034C24.7967 10.0034 25.0867 9.91542 25.3334 9.7506C25.58 9.58578 25.7723 9.35151 25.8858 9.07742C25.9994 8.80333 26.0291 8.50173 25.9712 8.21076C25.9133 7.91979 25.7704 7.65252 25.5607 7.44274C25.3509 7.23296 25.0836 7.0901 24.7926 7.03222C24.5017 6.97434 24.2001 7.00405 23.926 7.11758C23.6519 7.23111 23.4176 7.42337 23.2528 7.67004C23.088 7.91672 23 8.20673 23 8.5034C23 8.90122 23.158 9.28275 23.4393 9.56406C23.7206 9.84536 24.1022 10.0034 24.5 10.0034ZM27.5 14.5034C27.7967 14.5034 28.0867 14.4154 28.3334 14.2506C28.58 14.0858 28.7723 13.8515 28.8858 13.5774C28.9994 13.3033 29.0291 13.0017 28.9712 12.7108C28.9133 12.4198 28.7704 12.1525 28.5607 11.9427C28.3509 11.733 28.0836 11.5901 27.7926 11.5322C27.5017 11.4743 27.2001 11.504 26.926 11.6176C26.6519 11.7311 26.4176 11.9234 26.2528 12.17C26.088 12.4167 26 12.7067 26 13.0034C26 13.4012 26.158 13.7828 26.4393 14.0641C26.7206 14.3454 27.1022 14.5034 27.5 14.5034Z" fill="#8F8F8F"/>
</svg>
