<svg width="28" height="28" viewBox="0 0 39 39" fill="none" xmlns="http://www.w3.org/2000/svg">
<g clip-path="url(#clip0_13_73)">
<path d="M37.9025 13.8894L19.9468 4.31306C19.7736 4.22084 19.5804 4.17261 19.3842 4.17261C19.188 4.17261 18.9948 4.22084 18.8216 4.31306L0.865932 13.8894C0.674411 13.9915 0.514241 14.1437 0.402556 14.3298C0.290871 14.5159 0.231873 14.7288 0.231873 14.9458C0.231873 15.1628 0.290871 15.3758 0.402556 15.5618C0.514241 15.7479 0.674411 15.9001 0.865932 16.0022L5.01968 18.2182V25.4633C5.01843 26.0513 5.23483 26.619 5.62718 27.0569C7.58734 29.24 11.979 32.9015 19.3842 32.9015C21.8396 32.9218 24.2766 32.477 26.5665 31.5907V36.4926C26.5665 36.8101 26.6926 37.1146 26.9171 37.339C27.1416 37.5635 27.446 37.6897 27.7635 37.6897C28.081 37.6897 28.3855 37.5635 28.61 37.339C28.8344 37.1146 28.9606 36.8101 28.9606 36.4926V30.4341C30.5215 29.533 31.9321 28.3935 33.1412 27.0569C33.5336 26.619 33.75 26.0513 33.7487 25.4633V18.2182L37.9025 16.0022C38.094 15.9001 38.2542 15.7479 38.3659 15.5618C38.4775 15.3758 38.5365 15.1628 38.5365 14.9458C38.5365 14.7288 38.4775 14.5159 38.3659 14.3298C38.2542 14.1437 38.094 13.9915 37.9025 13.8894ZM19.3842 30.5074C12.9097 30.5074 9.1016 27.3442 7.41376 25.4633V19.4946L18.8216 25.5786C18.9948 25.6708 19.188 25.719 19.3842 25.719C19.5804 25.719 19.7736 25.6708 19.9468 25.5786L26.5665 22.0488V28.9826C24.6811 29.8625 22.305 30.5074 19.3842 30.5074ZM31.3547 25.4574C30.6371 26.2536 29.8343 26.9686 28.9606 27.5896V20.7709L31.3547 19.4946V25.4574ZM28.362 18.3783L28.3291 18.3589L19.9498 13.8894C19.6702 13.7466 19.3458 13.7194 19.0463 13.8135C18.7468 13.9077 18.4963 14.1157 18.3488 14.3928C18.2012 14.6698 18.1684 14.9938 18.2574 15.2948C18.3464 15.5959 18.5501 15.8499 18.8246 16.0022L25.8183 19.734L19.3842 23.165L3.97226 14.9458L19.3842 6.7266L34.7962 14.9458L28.362 18.3783Z" fill="#8F8F8F"/>
</g>
<defs>
<clipPath id="clip0_13_73">
<rect width="38.3054" height="38.3054" fill="white" transform="translate(0.231506 0.581299)"/>
</clipPath>
</defs>
</svg>
