<svg width="33" height="33" viewBox="0 0 33 33" fill="none" xmlns="http://www.w3.org/2000/svg">
<path d="M16.6069 10.7625C15.4202 10.7625 14.2602 11.1143 13.2735 11.7736C12.2868 12.4329 11.5178 13.37 11.0637 14.4664C10.6095 15.5627 10.4907 16.7691 10.7222 17.933C10.9537 19.0969 11.5252 20.166 12.3643 21.0051C13.2034 21.8442 14.2725 22.4157 15.4364 22.6472C16.6003 22.8787 17.8067 22.7599 18.903 22.3057C19.9994 21.8516 20.9365 21.0826 21.5958 20.0959C22.255 19.1092 22.6069 17.9491 22.6069 16.7625C22.6053 15.1717 21.9726 13.6465 20.8477 12.5216C19.7229 11.3968 18.1977 10.7641 16.6069 10.7625ZM16.6069 20.7625C15.8158 20.7625 15.0424 20.5279 14.3847 20.0883C13.7269 19.6488 13.2142 19.0241 12.9114 18.2932C12.6087 17.5623 12.5295 16.758 12.6838 15.9821C12.8381 15.2062 13.2191 14.4934 13.7785 13.934C14.3379 13.3746 15.0506 12.9937 15.8266 12.8393C16.6025 12.685 17.4068 12.7642 18.1377 13.0669C18.8686 13.3697 19.4933 13.8824 19.9328 14.5402C20.3723 15.198 20.6069 15.9713 20.6069 16.7625C20.6069 17.8233 20.1855 18.8407 19.4354 19.5909C18.6852 20.341 17.6678 20.7625 16.6069 20.7625ZM22.6069 3.76245H10.6069C8.75103 3.76444 6.9717 4.50257 5.65938 5.8149C4.34705 7.12722 3.60892 8.90655 3.60693 10.7625V22.7625C3.60892 24.6184 4.34705 26.3977 5.65938 27.71C6.9717 29.0223 8.75103 29.7605 10.6069 29.7625H22.6069C24.4628 29.7605 26.2422 29.0223 27.5545 27.71C28.8668 26.3977 29.6049 24.6184 29.6069 22.7625V10.7625C29.6049 8.90655 28.8668 7.12722 27.5545 5.8149C26.2422 4.50257 24.4628 3.76444 22.6069 3.76245ZM27.6069 22.7625C27.6069 24.0885 27.0801 25.3603 26.1425 26.298C25.2048 27.2357 23.933 27.7625 22.6069 27.7625H10.6069C9.28085 27.7625 8.00908 27.2357 7.0714 26.298C6.13372 25.3603 5.60693 24.0885 5.60693 22.7625V10.7625C5.60693 9.43637 6.13372 8.1646 7.0714 7.22692C8.00908 6.28924 9.28085 5.76245 10.6069 5.76245H22.6069C23.933 5.76245 25.2048 6.28924 26.1425 7.22692C27.0801 8.1646 27.6069 9.43637 27.6069 10.7625V22.7625ZM24.6069 10.2625C24.6069 10.5591 24.519 10.8491 24.3541 11.0958C24.1893 11.3425 23.955 11.5347 23.681 11.6483C23.4069 11.7618 23.1053 11.7915 22.8143 11.7336C22.5233 11.6758 22.2561 11.5329 22.0463 11.3231C21.8365 11.1133 21.6936 10.8461 21.6358 10.5551C21.5779 10.2641 21.6076 9.96252 21.7211 9.68843C21.8346 9.41434 22.0269 9.18007 22.2736 9.01525C22.5203 8.85042 22.8103 8.76245 23.1069 8.76245C23.5048 8.76245 23.8863 8.92049 24.1676 9.20179C24.4489 9.4831 24.6069 9.86463 24.6069 10.2625Z" fill="#8F8F8F"/>
</svg>
