<svg width="33" height="33" viewBox="0 0 33 33" fill="none" xmlns="http://www.w3.org/2000/svg">
<path d="M27.6144 3.42163H5.61444C5.08401 3.42163 4.5753 3.63234 4.20023 4.00742C3.82515 4.38249 3.61444 4.8912 3.61444 5.42163V27.4216C3.61444 27.9521 3.82515 28.4608 4.20023 28.8358C4.5753 29.2109 5.08401 29.4216 5.61444 29.4216H27.6144C28.1449 29.4216 28.6536 29.2109 29.0287 28.8358C29.4037 28.4608 29.6144 27.9521 29.6144 27.4216V5.42163C29.6144 4.8912 29.4037 4.38249 29.0287 4.00742C28.6536 3.63234 28.1449 3.42163 27.6144 3.42163ZM27.6144 27.4216H5.61444V5.42163H27.6144V27.4216ZM12.6144 14.4216V22.4216C12.6144 22.6868 12.5091 22.9412 12.3215 23.1287C12.134 23.3163 11.8797 23.4216 11.6144 23.4216C11.3492 23.4216 11.0949 23.3163 10.9073 23.1287C10.7198 22.9412 10.6144 22.6868 10.6144 22.4216V14.4216C10.6144 14.1564 10.7198 13.9021 10.9073 13.7145C11.0949 13.527 11.3492 13.4216 11.6144 13.4216C11.8797 13.4216 12.134 13.527 12.3215 13.7145C12.5091 13.9021 12.6144 14.1564 12.6144 14.4216ZM23.6144 17.9216V22.4216C23.6144 22.6868 23.5091 22.9412 23.3215 23.1287C23.134 23.3163 22.8797 23.4216 22.6144 23.4216C22.3492 23.4216 22.0949 23.3163 21.9073 23.1287C21.7198 22.9412 21.6144 22.6868 21.6144 22.4216V17.9216C21.6144 17.2586 21.351 16.6227 20.8822 16.1539C20.4134 15.685 19.7775 15.4216 19.1144 15.4216C18.4514 15.4216 17.8155 15.685 17.3467 16.1539C16.8778 16.6227 16.6144 17.2586 16.6144 17.9216V22.4216C16.6144 22.6868 16.5091 22.9412 16.3215 23.1287C16.134 23.3163 15.8797 23.4216 15.6144 23.4216C15.3492 23.4216 15.0949 23.3163 14.9073 23.1287C14.7198 22.9412 14.6144 22.6868 14.6144 22.4216V14.4216C14.6157 14.1767 14.7068 13.9407 14.8705 13.7585C15.0341 13.5763 15.259 13.4604 15.5024 13.433C15.7458 13.4056 15.9908 13.4684 16.191 13.6096C16.3911 13.7508 16.5324 13.9606 16.5882 14.1991C17.2647 13.7402 18.0534 13.4743 18.8696 13.4298C19.6859 13.3853 20.4988 13.564 21.2211 13.9467C21.9435 14.3294 22.5479 14.9016 22.9696 15.6019C23.3912 16.3022 23.6142 17.1042 23.6144 17.9216ZM13.1144 10.9216C13.1144 11.2183 13.0265 11.5083 12.8616 11.755C12.6968 12.0017 12.4626 12.1939 12.1885 12.3075C11.9144 12.421 11.6128 12.4507 11.3218 12.3928C11.0308 12.3349 10.7636 12.1921 10.5538 11.9823C10.344 11.7725 10.2011 11.5052 10.1433 11.2143C10.0854 10.9233 10.1151 10.6217 10.2286 10.3476C10.3422 10.0735 10.5344 9.83925 10.7811 9.67443C11.0278 9.5096 11.3178 9.42163 11.6144 9.42163C12.0123 9.42163 12.3938 9.57967 12.6751 9.86097C12.9564 10.1423 13.1144 10.5238 13.1144 10.9216Z" fill="#8F8F8F"/>
</svg>
