<svg width="33" height="33" viewBox="0 0 33 33" fill="none" xmlns="http://www.w3.org/2000/svg">
<path d="M18.4176 2.78577H14.4176C12.2966 2.78808 10.2631 3.63168 8.76331 5.13147C7.26352 6.63126 6.41992 8.66475 6.4176 10.7858V22.7858C6.41992 24.9068 7.26352 26.9403 8.76331 28.4401C10.2631 29.9399 12.2966 30.7835 14.4176 30.7858H18.4176C20.5386 30.7835 22.5721 29.9399 24.0719 28.4401C25.5717 26.9403 26.4153 24.9068 26.4176 22.7858V10.7858C26.4153 8.66475 25.5717 6.63126 24.0719 5.13147C22.5721 3.63168 20.5386 2.78808 18.4176 2.78577ZM24.4176 22.7858C24.4159 24.3766 23.7833 25.9017 22.6584 27.0266C21.5336 28.1514 20.0084 28.7841 18.4176 28.7858H14.4176C12.8268 28.7841 11.3016 28.1514 10.1768 27.0266C9.05193 25.9017 8.41926 24.3766 8.4176 22.7858V10.7858C8.41926 9.19498 9.05193 7.66981 10.1768 6.54495C11.3016 5.42009 12.8268 4.78742 14.4176 4.78577H18.4176C20.0084 4.78742 21.5336 5.42009 22.6584 6.54495C23.7833 7.66981 24.4159 9.19498 24.4176 10.7858V22.7858ZM17.4176 8.78577V14.7858C17.4176 15.051 17.3122 15.3053 17.1247 15.4929C16.9372 15.6804 16.6828 15.7858 16.4176 15.7858C16.1524 15.7858 15.898 15.6804 15.7105 15.4929C15.523 15.3053 15.4176 15.051 15.4176 14.7858V8.78577C15.4176 8.52055 15.523 8.2662 15.7105 8.07866C15.898 7.89112 16.1524 7.78577 16.4176 7.78577C16.6828 7.78577 16.9372 7.89112 17.1247 8.07866C17.3122 8.2662 17.4176 8.52055 17.4176 8.78577Z" fill="white"/>
</svg>
