<svg width="28" height="28" viewBox="0 0 39 39" fill="none" xmlns="http://www.w3.org/2000/svg">
<path d="M32.7635 6.67969H6.42851C5.79356 6.67969 5.18461 6.93192 4.73564 7.3809C4.28666 7.82988 4.03442 8.43882 4.03442 9.07378V30.6206C4.03442 31.2555 4.28666 31.8645 4.73564 32.3135C5.18461 32.7624 5.79356 33.0147 6.42851 33.0147H32.7635C33.3984 33.0147 34.0074 32.7624 34.4564 32.3135C34.9053 31.8645 35.1576 31.2555 35.1576 30.6206V9.07378C35.1576 8.43882 34.9053 7.82988 34.4564 7.3809C34.0074 6.93192 33.3984 6.67969 32.7635 6.67969ZM32.7635 30.6206H6.42851V9.07378H32.7635V30.6206ZM12.4137 13.2634C12.4137 13.6186 12.3084 13.9657 12.1111 14.261C11.9138 14.5563 11.6334 14.7864 11.3053 14.9223C10.9772 15.0582 10.6162 15.0938 10.2679 15.0245C9.91956 14.9552 9.59962 14.7842 9.34851 14.5331C9.0974 14.282 8.92638 13.962 8.8571 13.6137C8.78782 13.2654 8.82338 12.9044 8.95928 12.5763C9.09518 12.2482 9.32533 11.9678 9.6206 11.7705C9.91588 11.5732 10.263 11.4679 10.6182 11.4679C11.0944 11.4679 11.5511 11.657 11.8878 11.9938C12.2246 12.3305 12.4137 12.7872 12.4137 13.2634ZM18.399 13.2634C18.399 13.6186 18.2936 13.9657 18.0963 14.261C17.899 14.5563 17.6186 14.7864 17.2905 14.9223C16.9624 15.0582 16.6014 15.0938 16.2531 15.0245C15.9048 14.9552 15.5848 14.7842 15.3337 14.5331C15.0826 14.282 14.9116 13.962 14.8423 13.6137C14.773 13.2654 14.8086 12.9044 14.9445 12.5763C15.0804 12.2482 15.3105 11.9678 15.6058 11.7705C15.9011 11.5732 16.2483 11.4679 16.6034 11.4679C17.0796 11.4679 17.5363 11.657 17.873 11.9938C18.2098 12.3305 18.399 12.7872 18.399 13.2634Z" fill="#8F8F8F"/>
</svg>
